<svg xmlns="http://www.w3.org/2000/svg" viewBox="0 0 206.01 235.06"><g id="Layer_2" data-name="Layer 2"><g id="svg8"><path d="M205.85,62.87a8.5,8.5,0,0,0-4.27-7.36L107.08,1.13a8.52,8.52,0,0,0-8.5,0L4.24,55.8A8.5,8.5,0,0,0,0,63.17l.16,109a8.51,8.51,0,0,0,4.26,7.36l94.5,54.38a8.54,8.54,0,0,0,8.51,0l94.34-54.66a8.5,8.5,0,0,0,4.24-7.37ZM103.15,216.74l-86-49.48L17,68.05l85.85-49.73,86,49.48L189,167Z"/><path d="M140.67,85.83,103.2,108,66.76,86.92a8.5,8.5,0,1,0-8.51,14.72l36.51,21.13.12,40.16a8.5,8.5,0,0,0,8.5,8.48h0a8.5,8.5,0,0,0,8.48-8.53l-.11-40.18,37.56-22.23a8.5,8.5,0,1,0-8.66-14.64Z"/></g></g></svg>